<svg width="189" height="40" fill="none" xmlns="http://www.w3.org/2000/svg"><rect width="189" height="40" rx="8" fill="#25D366"/><path fill-rule="evenodd" clip-rule="evenodd" d="M27.7462 8.9474c2.9024.014 5.7034 1.1536 7.7986 3.1621 2.1456 2.057 3.3822 4.8152 3.4903 7.7856.1056 2.9007-.9071 5.7501-2.8279 7.9262-2.1067 2.3867-5.0371 3.7574-8.2021 3.8483a11.3615 11.3615 0 0 1-.325.0046c-1.7054 0-3.3949-.3845-4.9252-1.1209l-5.9481 1.323a.0874.0874 0 0 1-.1033-.0974l1.0048-6.0144c-.8575-1.5668-1.3361-3.3321-1.3877-5.1278-.087-3.0341 1.0127-5.9203 3.0966-8.1273 2.1606-2.2882 5.1111-3.562 8.2727-3.562h.0563Zm-.0633 1.9717a9.576 9.576 0 0 0-.2728.0039c-5.1765.1485-9.2671 4.4807-9.1186 9.6572.0454 1.5806.4907 3.1322 1.2878 4.4869l.173.2936-.7445 4.0812 4.0387-.9533.305.1587c1.3307.6924 2.8218 1.0553 4.3283 1.0553.0895 0 .1792-.0013.2687-.0039 5.1766-.1484 9.2672-4.4806 9.1187-9.6571-.1459-5.0851-4.3294-9.1225-9.3843-9.1225Zm-3.9285 3.9024c.1899.0059.3802.0113.5462.0235.2029.0146.4275.031.6265.5128.2362.5721.747 2.0004.8139 2.1453.0669.1449.1093.313.0084.5007-.1009.1873-.1521.3049-.2995.467-.1477.1623-.3111.3628-.4431.4867-.1474.1379-.3006.2879-.143.5785.1575.2907.701 1.2424 1.5255 2.0249 1.0596 1.0056 1.9093 1.3374 2.2468 1.4948.1218.0569.223.0839.3114.0839.1214 0 .2185-.0509.3112-.1448.1776-.18.712-.8036.937-1.0905.1177-.1501.2243-.2033.34-.2033.0926 0 .1911.0341.3061.08.2584.1032 1.639.8366 1.9198.9881.2808.1514.4686.2287.5363.3497.0676.1216.05.6927-.2081 1.3517-.2581.6591-1.4419 1.2661-1.9662 1.2975-.1535.0093-.3045.0307-.501.0307-.4751 0-1.2159-.1251-2.8986-.8498-2.8631-1.2329-4.6017-4.2625-4.7385-4.4571-.1365-.1949-1.1167-1.5831-1.0736-2.9873.0431-1.404.801-2.0718 1.0712-2.3493.259-.2661.5558-.334.7474-.334l.0239.0003Z" fill="#fff"/><path d="M55.6359 18.364h2.128c-.0654-.5787-.224-1.092-.476-1.54-.252-.448-.574-.8213-.966-1.12-.3827-.308-.8214-.5413-1.316-.7-.4854-.1587-1.0034-.238-1.554-.238-.7654 0-1.456.1353-2.072.406-.6067.2707-1.12.644-1.54 1.12-.42.476-.742 1.036-.966 1.68-.224.6347-.336 1.3253-.336 2.072 0 .728.112 1.4093.336 2.044.224.6253.546 1.1713.966 1.638.42.4667.9333.8353 1.54 1.106.616.2613 1.3066.392 2.072.392.616 0 1.1806-.0933 1.694-.28.5133-.1867.9613-.4573 1.344-.812.3826-.3547.6906-.784.924-1.288.2333-.504.378-1.0687.434-1.694h-2.128c-.084.672-.3174 1.2133-.7 1.624-.3734.4107-.896.616-1.568.616-.4947 0-.9147-.0933-1.26-.28-.3454-.196-.6254-.4527-.84-.77-.2147-.3173-.3734-.672-.476-1.064a5.417 5.417 0 0 1-.14-1.232c0-.4387.0466-.8633.14-1.274.1026-.4107.2613-.7747.476-1.092.2146-.3267.4946-.5833.84-.77.3453-.196.7653-.294 1.26-.294.2706 0 .5273.0467.77.14.252.084.476.2053.672.364.196.1587.3593.3453.49.56.1306.2053.2146.434.252.686Zm3.5029-3.36V25h1.988v-3.794c0-.7373.1213-1.2647.364-1.582.2427-.3267.6347-.49 1.176-.49.476 0 .8073.1493.994.448.1867.2893.28.7327.28 1.33V25h1.988v-4.452c0-.448-.042-.854-.126-1.218-.0747-.3733-.21-.686-.406-.938-.196-.2613-.4667-.462-.812-.602-.336-.1493-.77-.224-1.302-.224-.3733 0-.756.098-1.148.294-.392.1867-.714.49-.966.91h-.042v-3.766h-1.988Zm8.2148 4.984c.028-.4667.1447-.854.35-1.162a2.3847 2.3847 0 0 1 .784-.742c.3174-.1867.672-.3173 1.064-.392a5.8634 5.8634 0 0 1 1.204-.126c.364 0 .7327.028 1.106.084.3734.0467.714.1447 1.022.294.308.1493.56.3593.756.63.196.2613.294.6113.294 1.05v3.766c0 .3267.0187.6393.056.938.0374.2987.1027.5227.196.672h-2.016a4.5752 4.5752 0 0 1-.098-.336 4.8985 4.8985 0 0 1-.042-.364c-.3173.3267-.6906.5553-1.12.686a4.4942 4.4942 0 0 1-1.316.196c-.3453 0-.6673-.042-.966-.126-.2986-.084-.56-.2147-.784-.392-.224-.1773-.4013-.4013-.532-.672-.1213-.2707-.182-.5927-.182-.966 0-.4107.07-.7467.21-1.008.1494-.2707.336-.4853.56-.644.2334-.1587.4947-.2753.784-.35a7.7065 7.7065 0 0 1 .896-.196c.2987-.0467.5927-.084.882-.112.2894-.028.546-.07.77-.126.224-.056.4014-.1353.532-.238.1307-.112.1914-.2707.182-.476 0-.2147-.0373-.3827-.112-.504-.0653-.1307-.1586-.2287-.28-.294-.112-.0747-.2473-.1213-.406-.14-.1493-.028-.3126-.042-.49-.042-.392 0-.7.084-.924.252-.224.168-.3546.448-.392.84h-1.988Zm4.592 1.47c-.084.0747-.1913.1353-.322.182a3.7147 3.7147 0 0 1-.406.098c-.14.028-.2893.0513-.448.07a8.4008 8.4008 0 0 0-.476.07 3.9266 3.9266 0 0 0-.448.112c-.14.0467-.266.112-.378.196-.1026.0747-.1866.1727-.252.294-.0653.1213-.098.2753-.098.462 0 .1773.0327.3267.098.448a.8084.8084 0 0 0 .266.294c.112.0653.2427.112.392.14.1494.028.3034.042.462.042.392 0 .6954-.0653.91-.196.2147-.1307.3734-.2847.476-.462.1027-.1867.1634-.3733.182-.56.028-.1867.042-.336.042-.448v-.742Zm6.0511-3.696v-2.17h-1.988v2.17h-1.204v1.33h1.204v4.27c0 .364.0607.658.182.882.1213.224.2847.3967.49.518.2147.1213.4573.2007.728.238.28.0467.574.07.882.07.196 0 .3967-.0047.602-.014.2053-.0093.392-.028.56-.056v-1.54a2.7654 2.7654 0 0 1-.294.042c-.1027.0093-.21.014-.322.014-.336 0-.56-.056-.672-.168-.112-.112-.168-.336-.168-.672v-3.584h1.456v-1.33h-1.456Zm8.0624 3.626c0-.2893.028-.574.084-.854.056-.28.1493-.5273.28-.742.14-.2147.322-.3873.546-.518.224-.14.504-.21.84-.21.336 0 .616.07.84.21.2333.1307.4153.3033.546.518.14.2147.238.462.294.742.056.28.084.5647.084.854s-.028.574-.084.854c-.056.2707-.154.518-.294.742-.1307.2147-.3127.3873-.546.518-.224.1307-.504.196-.84.196-.336 0-.616-.0653-.84-.196a1.6122 1.6122 0 0 1-.546-.518c-.1307-.224-.224-.4713-.28-.742a4.3441 4.3441 0 0 1-.084-.854Zm-1.988 0c0 .5787.0886 1.1013.266 1.568.1773.4667.4293.868.756 1.204.3266.3267.7186.5787 1.176.756.4573.1773.9706.266 1.54.266.5693 0 1.0826-.0887 1.54-.266.4666-.1773.8633-.4293 1.19-.756.3266-.336.5786-.7373.756-1.204.1773-.4667.266-.9893.266-1.568 0-.5787-.0887-1.1013-.266-1.568-.1774-.476-.4294-.8773-.756-1.204-.3267-.336-.7234-.5927-1.19-.77-.4574-.1867-.9707-.28-1.54-.28-.5694 0-1.0827.0933-1.54.28-.4574.1773-.8494.434-1.176.77-.3267.3267-.5787.728-.756 1.204-.1774.4667-.266.9893-.266 1.568Zm8.7826-3.626V25h1.988v-3.794c0-.7373.1213-1.2647.364-1.582.2426-.3267.6346-.49 1.176-.49.476 0 .8073.1493.994.448.1866.2893.28.7327.28 1.33V25h1.988v-4.452c0-.448-.042-.854-.126-1.218-.0747-.3733-.21-.686-.406-.938-.196-.2613-.4667-.462-.812-.602-.336-.1493-.77-.224-1.302-.224-.42 0-.8307.098-1.232.294-.4014.1867-.728.49-.98.91h-.042v-1.008h-1.89ZM114.779 25l2.688-9.996h-2.156l-1.638 6.888h-.028l-1.708-6.888h-2.058l-1.736 6.804h-.028l-1.582-6.804h-2.198L106.981 25h2.226l1.666-6.804h.028L112.595 25h2.184Zm3.491-9.996V25h1.988v-3.794c0-.7373.121-1.2647.364-1.582.242-.3267.634-.49 1.176-.49.476 0 .807.1493.994.448.186.2893.28.7327.28 1.33V25h1.988v-4.452c0-.448-.042-.854-.126-1.218-.075-.3733-.21-.686-.406-.938-.196-.2613-.467-.462-.812-.602-.336-.1493-.77-.224-1.302-.224-.374 0-.756.098-1.148.294-.392.1867-.714.49-.966.91h-.042v-3.766h-1.988Zm8.215 4.984c.028-.4667.144-.854.35-1.162a2.374 2.374 0 0 1 .784-.742c.317-.1867.672-.3173 1.064-.392.401-.084.802-.126 1.204-.126.364 0 .732.028 1.106.084.373.0467.714.1447 1.022.294.308.1493.56.3593.756.63.196.2613.294.6113.294 1.05v3.766c0 .3267.018.6393.056.938.037.2987.102.5227.196.672h-2.016c-.038-.112-.07-.224-.098-.336a4.5069 4.5069 0 0 1-.042-.364c-.318.3267-.691.5553-1.12.686-.43.1307-.868.196-1.316.196-.346 0-.668-.042-.966-.126-.299-.084-.56-.2147-.784-.392-.224-.1773-.402-.4013-.532-.672-.122-.2707-.182-.5927-.182-.966 0-.4107.07-.7467.21-1.008.149-.2707.336-.4853.56-.644.233-.1587.494-.2753.784-.35.298-.084.597-.1493.896-.196.298-.0467.592-.084.882-.112.289-.028.546-.07.77-.126.224-.056.401-.1353.532-.238.13-.112.191-.2707.182-.476 0-.2147-.038-.3827-.112-.504-.066-.1307-.159-.2287-.28-.294-.112-.0747-.248-.1213-.406-.14-.15-.028-.313-.042-.49-.042-.392 0-.7.084-.924.252-.224.168-.355.448-.392.84h-1.988Zm4.592 1.47c-.084.0747-.192.1353-.322.182-.122.0373-.257.07-.406.098-.14.028-.29.0513-.448.07a8.257 8.257 0 0 0-.476.07c-.15.028-.299.0653-.448.112-.14.0467-.266.112-.378.196-.103.0747-.187.1727-.252.294-.066.1213-.098.2753-.098.462 0 .1773.032.3267.098.448a.8049.8049 0 0 0 .266.294c.112.0653.242.112.392.14.149.028.303.042.462.042.392 0 .695-.0653.91-.196.214-.1307.373-.2847.476-.462.102-.1867.163-.3733.182-.56.028-.1867.042-.336.042-.448v-.742Zm6.051-3.696v-2.17h-1.988v2.17h-1.204v1.33h1.204v4.27c0 .364.06.658.182.882.121.224.284.3967.49.518.214.1213.457.2007.728.238.28.0467.574.07.882.07.196 0 .396-.0047.602-.014.205-.0093.392-.028.56-.056v-1.54a2.8181 2.8181 0 0 1-.294.042c-.103.0093-.21.014-.322.014-.336 0-.56-.056-.672-.168-.112-.112-.168-.336-.168-.672v-3.584h1.456v-1.33h-1.456Zm3.941 4.886h-1.89c.019.4853.126.8913.322 1.218.206.3173.462.574.77.77.318.196.677.336 1.078.42.402.084.812.126 1.232.126.411 0 .812-.042 1.204-.126.402-.0747.756-.21 1.064-.406a2.248 2.248 0 0 0 .742-.77c.196-.3267.294-.728.294-1.204 0-.336-.065-.616-.196-.84-.13-.2333-.303-.4247-.518-.574-.214-.1587-.462-.2847-.742-.378a7.8493 7.8493 0 0 0-.84-.238 33.371 33.371 0 0 0-.826-.182c-.27-.056-.513-.1167-.728-.182-.205-.0747-.373-.168-.504-.28-.13-.112-.196-.2567-.196-.434 0-.1493.038-.266.112-.35.075-.0933.164-.1633.266-.21a1.156 1.156 0 0 1 .364-.084c.131-.0187.252-.028.364-.028.355 0 .663.07.924.21.262.1307.406.3873.434.77h1.89c-.037-.448-.154-.8167-.35-1.106-.186-.2987-.424-.5367-.714-.714-.289-.1773-.62-.3033-.994-.378-.364-.0747-.742-.112-1.134-.112-.392 0-.774.0373-1.148.112-.373.0653-.709.1867-1.008.364-.298.168-.541.4013-.728.7-.177.2987-.266.6813-.266 1.148 0 .3173.066.588.196.812.131.2147.304.3967.518.546.215.14.458.2567.728.35.28.084.565.1587.854.224.71.1493 1.26.2987 1.652.448.402.1493.602.3733.602.672 0 .1773-.042.3267-.126.448-.084.112-.191.2053-.322.28-.121.0653-.261.1167-.42.154a2.351 2.351 0 0 1-.434.042 2.358 2.358 0 0 1-.574-.07c-.177-.0467-.336-.1167-.476-.21a1.3646 1.3646 0 0 1-.35-.378c-.084-.1587-.126-.3453-.126-.56Zm8.71-1.512 1.302-3.668h.028l1.26 3.668h-2.59Zm.21-6.132L146.209 25h2.212l.784-2.226h3.738l.756 2.226h2.282l-3.738-9.996h-2.254Zm10.298 8.694c-.317 0-.588-.0653-.812-.196-.224-.1307-.406-.2987-.546-.504-.131-.2147-.229-.462-.294-.742a4.3441 4.3441 0 0 1-.084-.854c0-.2987.028-.588.084-.868.056-.28.149-.5273.28-.742.14-.2147.317-.3873.532-.518.224-.14.499-.21.826-.21.317 0 .583.07.798.21.224.1307.406.308.546.532.14.2147.238.462.294.742.065.28.098.5647.098.854s-.028.574-.084.854c-.056.28-.154.5273-.294.742-.131.2053-.308.3733-.532.504-.215.1307-.485.196-.812.196Zm-3.654-5.936v9.772h1.988v-3.43h.028c.243.3547.551.6253.924.812.383.1773.798.266 1.246.266.532 0 .994-.1027 1.386-.308.401-.2053.733-.4807.994-.826.271-.3453.471-.742.602-1.19.131-.448.196-.9147.196-1.4 0-.5133-.065-1.0033-.196-1.47-.131-.476-.331-.8913-.602-1.246-.271-.3547-.611-.6393-1.022-.854-.411-.2147-.901-.322-1.47-.322-.448 0-.859.0887-1.232.266s-.681.462-.924.854h-.028v-.924h-1.89Zm12.213 5.936c-.318 0-.588-.0653-.812-.196-.224-.1307-.406-.2987-.546-.504-.131-.2147-.229-.462-.294-.742a4.3441 4.3441 0 0 1-.084-.854c0-.2987.028-.588.084-.868.056-.28.149-.5273.28-.742.14-.2147.317-.3873.532-.518.224-.14.499-.21.826-.21.317 0 .583.07.798.21.224.1307.406.308.546.532.14.2147.238.462.294.742.065.28.098.5647.098.854s-.028.574-.084.854c-.056.28-.154.5273-.294.742-.131.2053-.308.3733-.532.504-.215.1307-.486.196-.812.196Zm-3.654-5.936v9.772h1.988v-3.43h.028c.242.3547.55.6253.924.812.382.1773.798.266 1.246.266.532 0 .994-.1027 1.386-.308.401-.2053.732-.4807.994-.826.27-.3453.471-.742.602-1.19.13-.448.196-.9147.196-1.4 0-.5133-.066-1.0033-.196-1.47-.131-.476-.332-.8913-.602-1.246-.271-.3547-.612-.6393-1.022-.854-.411-.2147-.901-.322-1.47-.322-.448 0-.859.0887-1.232.266-.374.1773-.682.462-.924.854h-.028v-.924h-1.89Z" fill="#fff"/></svg>